<svg xmlns="http://www.w3.org/2000/svg" height="24px" viewBox="0 -960 960 960" width="24px" fill="#1f1f1f"><path d="M451.5-131.5Q440-143 440-160v-280H160q-17 0-28.5-11.5T120-480q0-17 11.5-28.5T160-520h280v-280q0-17 11.5-28.5T480-840q17 0 28.5 11.5T520-800v280h280q17 0 28.5 11.5T840-480q0 17-11.5 28.5T800-440H520v280q0 17-11.5 28.5T480-120q-17 0-28.5-11.5Z" id="path1" style="stroke:#000000;fill:#1f1f1f;fill-opacity:1" /> <circle style="fill:#000000;stroke-width:40;stroke:#000000" id="path2" cx="480" cy="-480" r="146.56073" /> <path style="fill:#1f1f1f;fill-opacity:1;stroke:#1f1f1f;stroke-width:0.025;stroke-opacity:1;stroke-dasharray:none" d="M 11.346198,16.09886 C 10.05849,15.895253 8.9042264,15.052136 8.3042472,13.876904 8.148268,13.571374 7.9978106,13.143167 7.9223496,12.790011 c -0.07061,-0.330452 -0.07061,-1.24957 0,-1.580022 0.2723372,-1.2745324 1.0709284,-2.3289471 2.2007464,-2.9057418 0.30553,-0.1559792 0.733737,-0.3064366 1.086893,-0.3818976 0.330452,-0.07061 1.24957,-0.07061 1.580022,0 1.678739,0.3587066 2.928933,1.6089002 3.287639,3.2876394 0.07061,0.330452 0.07061,1.24957 0,1.580022 -0.371796,1.739998 -1.738191,3.050972 -3.451089,3.311113 -0.318111,0.04831 -0.96776,0.04716 -1.280363,-0.0023 z" id="path3" transform="matrix(40,0,0,40,0,-960)" /></svg>
